<?xml version="1.0"?>
<svg xmlns="http://www.w3.org/2000/svg" xmlns:xlink="http://www.w3.org/1999/xlink" xmlns:svgjs="http://svgjs.com/svgjs" version="1.1" width="512" height="512" x="0" y="0" viewBox="0 0 427.686 427.686" style="enable-background:new 0 0 512 512" xml:space="preserve" class=""><g>
<g xmlns="http://www.w3.org/2000/svg">
	<g>
		<path d="M270.325,189.802l-32.4-32.4c-2.749-2.737-7.065-3.108-10.24-0.88c-87.019,65.385-163.32,143.926-226.16,232.8    c-2.274,3.191-1.901,7.56,0.88,10.32l25.68,25.68c2.76,2.781,7.129,3.154,10.32,0.88c88.902-62.833,167.471-139.135,232.88-226.16    C273.492,196.848,273.087,192.53,270.325,189.802z" fill="#fa8072" data-original="#000000" style="" class=""/>
	</g>
</g>
<g xmlns="http://www.w3.org/2000/svg">
	<g>
		<path d="M427.605,144.842c-2.072-12.019-6.3-23.565-12.48-34.08l-15.36,5.28l-60.72,20.72c-0.715,0.116-1.445,0.116-2.16,0    c-3.755,0.056-6.844-2.943-6.9-6.698c-0.044-2.999,1.881-5.673,4.74-6.582l57.84-19.76l16-5.36    c-10.239-15.851-22.031-30.644-35.2-44.16c-5.2-4.96-10.24-9.44-15.12-13.6l-9.04,13.2l-8,11.92c-2.209,3.093-6.507,3.809-9.6,1.6    c-3.093-2.209-3.809-6.507-1.6-9.6l8.8-12.8l9.04-13.2c-6.475-5.009-13.204-9.682-20.16-14l-6.32,14.88l-14.64,33.44    c-1.458,3.535-5.505,5.218-9.04,3.76c-3.535-1.458-5.218-5.505-3.76-9.04l14.64-34.32l6.32-14.8    c-9.904-5.714-20.735-9.641-32-11.6c-4.073-0.414-7.801,2.313-8.64,6.32l-28.96,139.2c-0.551,2.635,0.261,5.371,2.16,7.28    l27.28,27.28c1.51,1.497,3.554,2.332,5.68,2.32h1.6l139.28-28.96C425.292,152.643,428.019,148.914,427.605,144.842z" fill="#fa8072" data-original="#000000" style="" class=""/>
	</g>
</g>
<g xmlns="http://www.w3.org/2000/svg">
</g>
<g xmlns="http://www.w3.org/2000/svg">
</g>
<g xmlns="http://www.w3.org/2000/svg">
</g>
<g xmlns="http://www.w3.org/2000/svg">
</g>
<g xmlns="http://www.w3.org/2000/svg">
</g>
<g xmlns="http://www.w3.org/2000/svg">
</g>
<g xmlns="http://www.w3.org/2000/svg">
</g>
<g xmlns="http://www.w3.org/2000/svg">
</g>
<g xmlns="http://www.w3.org/2000/svg">
</g>
<g xmlns="http://www.w3.org/2000/svg">
</g>
<g xmlns="http://www.w3.org/2000/svg">
</g>
<g xmlns="http://www.w3.org/2000/svg">
</g>
<g xmlns="http://www.w3.org/2000/svg">
</g>
<g xmlns="http://www.w3.org/2000/svg">
</g>
<g xmlns="http://www.w3.org/2000/svg">
</g>
</g></svg>
