<?xml version="1.0"?>
<svg xmlns="http://www.w3.org/2000/svg" xmlns:xlink="http://www.w3.org/1999/xlink" xmlns:svgjs="http://svgjs.com/svgjs" version="1.1" width="512" height="512" x="0" y="0" viewBox="0 0 512 512" style="enable-background:new 0 0 512 512" xml:space="preserve" class=""><g>
<g xmlns="http://www.w3.org/2000/svg">
	<g>
		<polygon points="356.974,85.926 356.975,85.926 356.975,85.926   " fill="#ffb3aa" data-original="#000000" style="" class=""/>
	</g>
</g>
<g xmlns="http://www.w3.org/2000/svg">
	<g>
		<path d="M479.771,33.083c-42.971-42.972-112.892-42.971-155.864,0l-90.189,90.19c0,0,15.401,13.273,20.244,16.869    c0,0-228.471,228.216-229.707,229.452c-32.339,32.339-32.339,84.959,0,117.298c16.169,16.169,37.409,24.254,58.648,24.254    c21.24,0,42.48-8.085,58.648-24.254c1.119-1.119,230.085-228.467,230.085-228.467c2.422,3.001,18.435,20.221,18.435,20.221    l89.7-89.7C522.743,145.975,522.743,76.055,479.771,33.083z M120.399,465.74c-20.676,20.676-54.317,20.675-74.992,0    c-20.676-20.676-20.676-54.318,0-74.993c20.676-20.674,54.318-20.675,74.992,0C141.074,411.423,141.074,445.065,120.399,465.74z     M165.464,420.808c-1.668-18.697-9.632-36.933-23.912-51.214c-14.188-14.188-32.281-22.148-50.852-23.887L279.838,156.57    c3.223,1.715,6.592,3.387,10.083,4.956c22.243,9.992,40.214,11.937,54.535,9.61c-0.256,2.305-0.452,4.699-0.568,7.18    c-0.682,14.43,1.317,33.575,11.294,54.297L165.464,420.808z M458.619,167.795l-67.238,67.238    c-20.131-27.726-19.294-53.681-15.806-69.306c5.024,1.698,10.271,2.556,15.521,2.556c12.357,0,24.716-4.703,34.124-14.111    c18.815-18.816,18.815-49.43,0-68.245c-9.115-9.115-21.233-14.134-34.123-14.134c-12.89,0-25.008,5.02-34.123,14.134    c-9.115,9.115-14.134,21.233-14.134,34.123c0,6.798,1.409,13.375,4.066,19.417c-11.469,4.625-26.278,2.961-44.213-4.997    c-9.291-4.123-17.742-9.241-24.236-13.632l66.601-66.602c31.308-31.307,82.251-31.308,113.559,0S489.927,136.487,458.619,167.795z     M372.755,120.049c0-4.9,1.909-9.506,5.373-12.97c3.464-3.465,8.071-5.373,12.97-5.373c4.899,0,9.506,1.909,12.971,5.373    c7.151,7.151,7.151,18.789,0,25.94c-7.152,7.152-18.789,7.151-25.941,0C374.662,129.555,372.755,124.949,372.755,120.049z" fill="#ffb3aa" data-original="#000000" style="" class=""/>
	</g>
</g>
<g xmlns="http://www.w3.org/2000/svg">
</g>
<g xmlns="http://www.w3.org/2000/svg">
</g>
<g xmlns="http://www.w3.org/2000/svg">
</g>
<g xmlns="http://www.w3.org/2000/svg">
</g>
<g xmlns="http://www.w3.org/2000/svg">
</g>
<g xmlns="http://www.w3.org/2000/svg">
</g>
<g xmlns="http://www.w3.org/2000/svg">
</g>
<g xmlns="http://www.w3.org/2000/svg">
</g>
<g xmlns="http://www.w3.org/2000/svg">
</g>
<g xmlns="http://www.w3.org/2000/svg">
</g>
<g xmlns="http://www.w3.org/2000/svg">
</g>
<g xmlns="http://www.w3.org/2000/svg">
</g>
<g xmlns="http://www.w3.org/2000/svg">
</g>
<g xmlns="http://www.w3.org/2000/svg">
</g>
<g xmlns="http://www.w3.org/2000/svg">
</g>
</g></svg>
