<?xml version="1.0"?>
<svg xmlns="http://www.w3.org/2000/svg" xmlns:xlink="http://www.w3.org/1999/xlink" xmlns:svgjs="http://svgjs.com/svgjs" version="1.1" width="512" height="512" x="0" y="0" viewBox="0 0 74 74" style="enable-background:new 0 0 512 512" xml:space="preserve" class=""><g><path xmlns="http://www.w3.org/2000/svg" d="m55.32 52.807h-34.22a3.424 3.424 0 0 1 -3.343-2.749l-8.43-43.464a3.382 3.382 0 0 1 2.408-3.9 8.628 8.628 0 0 1 2.325-.314c4 0 9.376 2.875 12.244 16.569.537 2.551.98 5.336 1.316 8.276a1 1 0 0 1 -.994 1.113h-1.212a1.7 1.7 0 0 0 0 3.406h1.692a1 1 0 0 1 1 .938 92.122 92.122 0 0 1 .141 9.238 99.912 99.912 0 0 1 14.093-1.487c7.61-.01 12.476 1.177 14.9 3.723a5.989 5.989 0 0 1 1.66 4.636v.008a8.067 8.067 0 0 1 -.3 1.556 3.391 3.391 0 0 1 -3.28 2.451zm-41.26-48.422a6.63 6.63 0 0 0 -1.789.241 1.375 1.375 0 0 0 -.981 1.584l8.425 43.461a1.4 1.4 0 0 0 1.38 1.136h34.225a1.4 1.4 0 0 0 1.352-1.015 6.32 6.32 0 0 0 .227-1.113 4 4 0 0 0 -1.11-3.139c-1.372-1.441-4.812-3.164-13.409-3.1a95.439 95.439 0 0 0 -14.993 1.7 1 1 0 0 1 -1.2-1.039 85.838 85.838 0 0 0 -.021-9.346h-.749a3.7 3.7 0 0 1 0-7.406h.083c-.31-2.468-.7-4.81-1.153-6.978-2.053-9.806-5.61-14.986-10.287-14.986z" fill="#707070" data-original="#000000" style="" class=""/><path xmlns="http://www.w3.org/2000/svg" d="m45.263 57.414h-14.6a2.241 2.241 0 0 1 -2.239-2.239v-3.365a1 1 0 0 1 1-1h17.076a1 1 0 0 1 1 1v3.365a2.241 2.241 0 0 1 -2.237 2.239zm-14.837-4.6v2.365a.239.239 0 0 0 .239.239h14.6a.239.239 0 0 0 .239-.239v-2.369z" fill="#707070" data-original="#000000" style="" class=""/><path xmlns="http://www.w3.org/2000/svg" d="m50.5 71.615h-25.067a1 1 0 0 1 -1-1 5.611 5.611 0 0 1 5.605-5.6h15.852a5.611 5.611 0 0 1 5.6 5.6 1 1 0 0 1 -.99 1zm-23.921-2h22.78a3.612 3.612 0 0 0 -3.464-2.6h-15.857a3.612 3.612 0 0 0 -3.464 2.6z" fill="#707070" data-original="#000000" style="" class=""/><path xmlns="http://www.w3.org/2000/svg" d="m40.174 67.01h-4.42a1 1 0 0 1 -1-1v-9.6a1 1 0 0 1 1-1h4.42a1 1 0 0 1 1 1v9.6a1 1 0 0 1 -1 1zm-3.42-2h2.42v-7.6h-2.42z" fill="#707070" data-original="#000000" style="" class=""/><path xmlns="http://www.w3.org/2000/svg" d="m63.736 60.782h-8.472a1 1 0 0 1 -.673-.26l-8.762-7.973a1 1 0 1 1 1.346-1.479l8.475 7.712h8.086a1 1 0 1 1 0 2z" fill="#707070" data-original="#000000" style="" class=""/><path xmlns="http://www.w3.org/2000/svg" d="m40.645 33.749h-15.231a3.7 3.7 0 0 1 0-7.406h15.231a3.7 3.7 0 0 1 0 7.406zm-15.231-5.406a1.7 1.7 0 0 0 0 3.406h15.231a1.7 1.7 0 0 0 0-3.406z" fill="#707070" data-original="#000000" style="" class=""/></g></svg>
