<?xml version="1.0"?>
<svg xmlns="http://www.w3.org/2000/svg" xmlns:xlink="http://www.w3.org/1999/xlink" xmlns:svgjs="http://svgjs.com/svgjs" version="1.1" width="512" height="512" x="0" y="0" viewBox="0 0 24 24" style="enable-background:new 0 0 512 512" xml:space="preserve" class=""><g><path xmlns="http://www.w3.org/2000/svg" d="m21.5 23h-19c-1.378 0-2.5-1.122-2.5-2.5v-7c0-1.378 1.122-2.5 2.5-2.5h19c1.378 0 2.5 1.122 2.5 2.5v7c0 1.378-1.122 2.5-2.5 2.5zm-19-11c-.827 0-1.5.673-1.5 1.5v7c0 .827.673 1.5 1.5 1.5h19c.827 0 1.5-.673 1.5-1.5v-7c0-.827-.673-1.5-1.5-1.5z" fill="#fa8072" data-original="#000000" style=""/><path xmlns="http://www.w3.org/2000/svg" d="m12 7c-1.654 0-3-1.346-3-3s1.346-3 3-3 3 1.346 3 3-1.346 3-3 3zm0-5c-1.103 0-2 .897-2 2s.897 2 2 2 2-.897 2-2-.897-2-2-2z" fill="#fa8072" data-original="#000000" style=""/><path xmlns="http://www.w3.org/2000/svg" d="m6.5 12c-.062 0-.125-.011-.186-.036-.256-.103-.381-.394-.279-.65l3-7.5c.103-.257.396-.382.65-.279.256.103.381.394.279.65l-3 7.5c-.078.196-.266.315-.464.315z" fill="#fa8072" data-original="#000000" style=""/><path xmlns="http://www.w3.org/2000/svg" d="m17.5 12c-.198 0-.386-.119-.464-.314l-3-7.5c-.103-.256.022-.547.279-.65.255-.103.547.022.65.279l3 7.5c.103.256-.022.547-.279.65-.061.024-.124.035-.186.035z" fill="#fa8072" data-original="#000000" style=""/><path xmlns="http://www.w3.org/2000/svg" d="m15.5 20c-1.354 0-2.651-.59-3.5-1.586-.849.996-2.146 1.586-3.5 1.586-1.93 0-3.5-1.493-3.5-3.328 0-.193.111-.368.285-.451.173-.084.38-.06.53.062.732.592 1.061.341 1.311.058l.909-1.29c.739-1.046 2.21-1.361 3.347-.717.382.215.855.216 1.237 0 1.139-.644 2.608-.328 3.347.717l.942 1.332c.216.24.544.493 1.277-.101.15-.121.357-.146.53-.062.174.084.285.259.285.452 0 1.835-1.57 3.328-3.5 3.328zm-3.5-2.65c.272 0 .524.121.691.331.657.826 1.707 1.319 2.809 1.319 1.023 0 1.905-.576 2.292-1.397-.792.19-1.356-.25-1.666-.6l-.976-1.375c-.447-.632-1.341-.819-2.039-.424-.686.388-1.536.388-2.222 0-.695-.393-1.591-.208-2.039.424l-.942 1.332c-.333.381-.904.827-1.7.641.386.823 1.268 1.399 2.292 1.399 1.102 0 2.152-.493 2.809-1.319.167-.21.419-.331.691-.331z" fill="#fa8072" data-original="#000000" style=""/></g></svg>
