<?xml version="1.0"?>
<svg xmlns="http://www.w3.org/2000/svg" xmlns:xlink="http://www.w3.org/1999/xlink" xmlns:svgjs="http://svgjs.com/svgjs" version="1.1" width="512" height="512" x="0" y="0" viewBox="0 0 512 512" style="enable-background:new 0 0 512 512" xml:space="preserve" class=""><g><g xmlns="http://www.w3.org/2000/svg"><path d="m346.382 226.493-180.764-66.692v28.023l180.764 66.692z" fill="#ffb3aa" data-original="#000000" style="" class=""/><path d="m165.618 247.825 180.764 66.691v-28.023l-180.764-66.692z" fill="#ffb3aa" data-original="#000000" style="" class=""/><path d="m165.618 307.824 180.764 66.692v-28.023l-180.764-66.691z" fill="#ffb3aa" data-original="#000000" style="" class=""/><path d="m256 512c37.391 0 70.082-20.103 87.869-50.087h-175.738c17.787 29.984 50.478 50.087 87.869 50.087z" fill="#ffb3aa" data-original="#000000" style="" class=""/><path d="m368.396 377.886h-99.552l-103.225-38.084v38.084h-22.014c-6.627 0-11.999 5.372-11.999 11.999v30.028c0 6.627 5.372 11.999 11.999 11.999h224.792c6.627 0 11.999-5.372 11.999-11.999v-30.028c-.001-6.627-5.373-11.999-12-11.999z" fill="#ffb3aa" data-original="#000000" style="" class=""/><path d="m256 0c-37.391 0-70.082 20.104-87.869 50.087h175.738c-17.787-29.983-50.478-50.087-87.869-50.087z" fill="#ffb3aa" data-original="#000000" style="" class=""/><path d="m368.396 80.088h-224.792c-6.627 0-11.999 5.372-11.999 11.999v30.028c0 6.627 5.372 11.999 11.999 11.999h39.062l163.715 60.402v-28.023l-87.76-32.379h109.775c6.627 0 11.999-5.372 11.999-11.999v-30.028c0-6.627-5.372-11.999-11.999-11.999z" fill="#ffb3aa" data-original="#000000" style="" class=""/></g></g></svg>
